<svg width="200" height="70" viewBox="0 0 200 70" fill="none" xmlns="http://www.w3.org/2000/svg">
<g id="IMAGE" clip-path="url(#clip0_1_399)">
<g id="Guest-House-Logotype-Light-Horizontal">
<path id="Combined-Shape" fill-rule="evenodd" clip-rule="evenodd" d="M0 0L200 0.0058382V69.9708L69.8759 70H0V0ZM65.2719 4.61218H4.604V65.3878H65.2719V4.61218ZM195.413 4.6005H69.8759V65.3761H195.413V4.6005ZM131.878 37.0609V48.241C131.878 49.9283 132.269 51.1543 133.038 51.9191C133.819 52.6839 134.775 53.0692 135.923 53.0692C137.065 53.0692 138.027 52.6839 138.802 51.9191C139.577 51.1543 139.962 49.9283 139.962 48.241V37.0609H143.785V48.3228C143.785 50.9908 143.021 53.0459 141.488 54.4937C139.956 55.9475 138.102 56.6772 135.923 56.6772C133.72 56.6772 131.861 55.9475 130.34 54.4937C128.819 53.0459 128.055 50.9908 128.055 48.3228V37.0609H131.878ZM155.721 36.8624C157.056 36.8624 158.373 37.1543 159.684 37.7381C160.995 38.3219 162.167 39.1043 163.204 40.0851L160.71 42.3853C160.005 41.8132 159.183 41.352 158.233 40.9958C157.277 40.6455 156.444 40.4704 155.721 40.4704H155.506C154.69 40.4704 153.932 40.6397 153.221 40.9842C152.51 41.3286 152.155 41.8774 152.155 42.6364C152.155 43.226 152.434 43.6639 152.994 43.9383C153.559 44.2185 154.357 44.4229 155.389 44.5513L156.945 44.7206C159.107 44.9775 160.791 45.5671 161.998 46.4837C163.21 47.3945 163.816 48.7957 163.816 50.6814C163.816 52.4971 163.105 53.945 161.695 55.025C160.279 56.1051 158.472 56.6597 156.281 56.6772H156.112C154.288 56.6772 152.667 56.3094 151.251 55.5797C149.835 54.8499 148.716 53.9099 147.889 52.7598L150.377 50.4654C150.878 51.166 151.624 51.7731 152.621 52.2927C153.617 52.8123 154.783 53.0692 156.112 53.0692H156.281C157.405 53.0517 158.303 52.8299 158.979 52.4037C159.655 51.9775 159.993 51.4053 159.993 50.6814C159.993 49.9049 159.684 49.3445 159.078 49.0058C158.466 48.6614 157.58 48.422 156.415 48.2702L154.894 48.1009C150.517 47.5813 148.331 45.8123 148.331 42.7765C148.331 40.9958 149.008 39.5771 150.365 38.5204C151.723 37.452 153.431 36.9033 155.506 36.8624H155.721ZM113.657 36.8653C116.39 36.8653 118.721 37.8344 120.645 39.7611C122.579 41.6993 123.547 44.0346 123.547 46.7727C123.547 49.505 122.579 51.8461 120.645 53.7786C118.721 55.7052 116.39 56.6743 113.657 56.6743C110.924 56.6743 108.598 55.7052 106.675 53.7786C104.752 51.8461 103.796 49.505 103.796 46.7727C103.796 44.0346 104.752 41.6993 106.675 39.7611C108.598 37.8344 110.924 36.8653 113.657 36.8653ZM87.9241 37.0609V44.9133H95.4304V37.0609H99.2534V56.4846H95.4304V48.5213H87.9241V56.4846H84.1011V37.0609H87.9241ZM181.072 37.0585V40.6666H171.987V44.9109H180.379V48.5189H171.987V52.8742H181.072V56.4822H168.164V37.0585H181.072ZM56.5715 13.7892V18.3839H18.3641V51.5916H51.985V37.288H34.9443V32.6933H56.5715V56.1862H13.7776V13.7892H56.5715ZM113.657 40.4733C111.938 40.4733 110.504 41.063 109.35 42.2481C108.19 43.4333 107.619 44.9395 107.619 46.7727C107.619 48.6176 108.19 50.1355 109.35 51.309C110.504 52.4825 111.938 53.0721 113.657 53.0721C115.394 53.0721 116.833 52.4825 117.993 51.309C119.141 50.1355 119.724 48.6176 119.724 46.7727C119.724 44.9395 119.141 43.4333 117.975 42.2481C116.816 41.063 115.376 40.4733 113.657 40.4733ZM92.6616 13.3304C95.5405 13.3304 97.9766 14.4046 99.9755 16.5472L97.4812 18.8475C96.2049 17.5689 94.6022 16.9325 92.6616 16.9325C90.9424 16.9325 89.5087 17.5222 88.3548 18.6957C87.1951 19.8691 86.6239 21.3871 86.6239 23.2319C86.6239 25.0651 87.1951 26.5772 88.3548 27.7565C89.5087 28.9417 90.9424 29.5372 92.6616 29.5372C93.9728 29.5372 95.1326 29.1752 96.1525 28.4513V25.0943H92.6033V22.2103H99.9755V29.9167C97.9766 32.0651 95.5405 33.1394 92.6616 33.1394C89.9283 33.1394 87.603 32.1702 85.6798 30.2378C83.7566 28.3112 82.8009 25.9701 82.8009 23.2319C82.8009 20.4997 83.7566 18.1585 85.6798 16.2261C87.603 14.2937 89.9283 13.3304 92.6616 13.3304ZM155.725 13.2994C157.054 13.2994 158.377 13.5913 159.682 14.1751C160.999 14.759 162.171 15.5354 163.202 16.5221L160.708 18.8224C160.009 18.2502 159.181 17.7832 158.231 17.4329C157.281 17.0826 156.442 16.9074 155.725 16.9074H155.504C154.688 16.9074 153.93 17.0767 153.219 17.4212C152.508 17.7598 152.153 18.3144 152.153 19.0734C152.153 19.6631 152.433 20.1009 152.998 20.3753C153.563 20.6555 154.356 20.8599 155.393 20.9883L156.943 21.1518C159.105 21.4087 160.79 21.9983 161.996 22.9149C163.208 23.8257 163.814 25.2327 163.814 27.1184C163.814 28.9283 163.109 30.382 161.693 31.4562C160.283 32.5421 158.476 33.0909 156.279 33.1143H156.11C154.286 33.1143 152.666 32.7465 151.249 32.0167C149.839 31.2811 148.72 30.347 147.887 29.1968L150.381 26.8966C150.876 27.603 151.628 28.2102 152.625 28.7239C153.616 29.2435 154.787 29.5063 156.11 29.5063H156.279C157.41 29.4887 158.301 29.2611 158.977 28.8407C159.653 28.4145 159.991 27.8365 159.991 27.1184C159.991 26.342 159.682 25.7815 159.076 25.437C158.464 25.0984 157.584 24.8532 156.419 24.7014L154.892 24.5379C150.515 24.0183 148.33 22.2435 148.33 19.2077C148.33 17.4329 149.006 16.0142 150.364 14.9516C151.722 13.8891 153.435 13.3403 155.504 13.2994H155.725ZM109.628 13.4956V24.6757C109.628 26.363 110.019 27.589 110.788 28.3538C111.569 29.1186 112.525 29.5039 113.673 29.5039C114.815 29.5039 115.777 29.1186 116.552 28.3538C117.327 27.589 117.711 26.363 117.711 24.6757V13.4956H121.534V24.7575C121.534 27.4255 120.771 29.4806 119.238 30.9284C117.706 32.3822 115.852 33.1119 113.673 33.1119C111.47 33.1119 109.611 32.3822 108.09 30.9284C106.569 29.4806 105.805 27.4255 105.805 24.7575V13.4956H109.628ZM142.375 13.4956V17.1036H133.29V21.348H141.682V24.956H133.29V29.3113H142.375V32.9193H129.467V13.4956H142.375ZM181.849 13.4932V17.1013H176.528V32.9169H172.705V17.1013H167.39V13.4932H181.849Z" fill="white"/>
</g>
</g>
<defs>
<clipPath id="clip0_1_399">
<rect width="200" height="70" fill="white"/>
</clipPath>
</defs>
</svg>
